<svg xmlns="http://www.w3.org/2000/svg" width="80" height="80" viewBox="0 0 80 80">
  <g transform="translate(9823 166)">
    <path d="M139.8-80.1c17.528,0,27.278,0,33.639-6.361S179.8-102.572,179.8-120.1s0-27.278-6.361-33.639S157.328-160.1,139.8-160.1s-27.278,0-33.639,6.361S99.8-137.628,99.8-120.1s0,27.278,6.361,33.639S122.272-80.1,139.8-80.1Z" transform="translate(-9922.8 -5.9)" fill="#dc182d"></path>
    <path d="M-708-708l-14.182-52H-760v37.818Zm-21.363-22.153h-6.085v-12.563l-5.643,8.563h-.126l-5.612-8.5v12.5h-5.99v-21.876h6.463l5.265,8.469,5.265-8.469h6.463Z" transform="translate(-9049 608)" fill="#fff"></path>
  </g>
</svg>